<?xml version="1.0" encoding="UTF-8" standalone="no"?>
<!DOCTYPE svg PUBLIC "-//W3C//DTD SVG 1.1//EN" "http://www.w3.org/Graphics/SVG/1.1/DTD/svg11.dtd">
<svg width="100%" height="100%" viewBox="0 0 17 16" version="1.1" xmlns="http://www.w3.org/2000/svg" xmlns:xlink="http://www.w3.org/1999/xlink" xml:space="preserve" xmlns:serif="http://www.serif.com/" style="fill-rule:evenodd;clip-rule:evenodd;stroke-linejoin:round;stroke-miterlimit:2;">
    <g transform="matrix(1,0,0,1,-681,-257)">
        <g id="MaskIcon" transform="matrix(0.04,0,0,0.04,681.5,257)">
            <rect x="0" y="0" width="400" height="400" style="fill:none;"/>
            <g transform="matrix(10.2586,0,0,10.2586,-5157.27,-2673.39)">
                <path d="M538.587,276.31L538.187,276.27L538.187,275.75C538.187,274.71 537.867,273.87 537.227,273.23C536.587,272.59 535.747,272.257 534.707,272.23L528.667,272.23L528.667,295.83C528.694,296.523 528.954,297.117 529.447,297.61C529.941,298.103 530.534,298.35 531.227,298.35L531.747,298.35L531.747,298.75L520.707,298.75L520.707,298.35L521.227,298.35C521.921,298.35 522.514,298.103 523.007,297.61C523.501,297.117 523.761,296.523 523.787,295.83L523.787,272.23L517.707,272.23C516.667,272.257 515.827,272.59 515.187,273.23C514.547,273.87 514.227,274.71 514.227,275.75L514.227,276.27L513.827,276.31L513.827,269.99C514.094,270.097 514.501,270.203 515.047,270.31C515.594,270.417 516.201,270.51 516.867,270.59C517.534,270.67 518.147,270.71 518.707,270.71L533.707,270.71C534.294,270.71 534.914,270.67 535.567,270.59C536.221,270.51 536.827,270.417 537.387,270.31C537.947,270.203 538.347,270.097 538.587,269.99L538.587,276.31ZM520.707,290.544C517.904,290.438 515.419,289.843 513.253,288.76C510.906,287.587 509.086,285.913 507.793,283.74C506.499,281.567 505.853,278.973 505.853,275.96C505.853,273 506.493,270.433 507.773,268.26C509.053,266.087 510.866,264.407 513.213,263.22C515.559,262.033 518.346,261.44 521.573,261.44C523.653,261.44 525.519,261.673 527.173,262.14C528.826,262.607 530.226,263.16 531.373,263.8L531.693,270.24L531.333,270.24C530.666,267.707 529.486,265.86 527.793,264.7C526.099,263.54 524.119,262.96 521.853,262.96C519.666,262.96 517.779,263.487 516.193,264.54C514.606,265.593 513.379,267.087 512.513,269.02C511.646,270.953 511.213,273.24 511.213,275.88C511.213,278.52 511.633,280.82 512.473,282.78C513.313,284.74 514.499,286.26 516.033,287.34C517.388,288.295 518.946,288.848 520.707,289L520.707,290.544Z" style="fill-rule:nonzero;"/>
            </g>
        </g>
    </g>
</svg>
